<mxfile host="65bd71144e">
    <diagram id="FJXhwHptYgPNuSuxnt-G" name="Page-1">
        <mxGraphModel dx="2240" dy="912" grid="1" gridSize="10" guides="1" tooltips="1" connect="1" arrows="1" fold="1" page="1" pageScale="1" pageWidth="850" pageHeight="1100" math="0" shadow="0">
            <root>
                <mxCell id="0"/>
                <mxCell id="1" parent="0"/>
                <mxCell id="40" value="Program" style="swimlane;fontStyle=1;align=center;verticalAlign=top;childLayout=stackLayout;horizontal=1;startSize=26;horizontalStack=0;resizeParent=1;resizeParentMax=0;resizeLast=0;collapsible=1;marginBottom=0;fillColor=#f5f5f5;fontColor=#333333;strokeColor=#666666;fontSize=14;" parent="1" vertex="1">
                    <mxGeometry x="-85" y="185.25" width="170" height="64" as="geometry"/>
                </mxCell>
                <mxCell id="41" value="+ scripture1: Scripture()" style="text;strokeColor=#666666;fillColor=#f5f5f5;align=left;verticalAlign=top;spacingLeft=4;spacingRight=4;overflow=hidden;rotatable=0;points=[[0,0.5],[1,0.5]];portConstraint=eastwest;fontColor=#333333;fontSize=14;" parent="40" vertex="1">
                    <mxGeometry y="26" width="170" height="30" as="geometry"/>
                </mxCell>
                <mxCell id="42" value="" style="line;strokeWidth=1;fillColor=none;align=left;verticalAlign=middle;spacingTop=-1;spacingLeft=3;spacingRight=3;rotatable=0;labelPosition=right;points=[];portConstraint=eastwest;strokeColor=inherit;fontSize=14;" parent="40" vertex="1">
                    <mxGeometry y="56" width="170" height="8" as="geometry"/>
                </mxCell>
                <mxCell id="57" value="Scripture" style="swimlane;fontStyle=1;align=center;verticalAlign=top;childLayout=stackLayout;horizontal=1;startSize=26;horizontalStack=0;resizeParent=1;resizeParentMax=0;resizeLast=0;collapsible=1;marginBottom=0;fillColor=#f5f5f5;strokeColor=#666666;fontColor=#333333;fontSize=14;" parent="1" vertex="1">
                    <mxGeometry x="-85" y="405.25" width="180" height="146" as="geometry"/>
                </mxCell>
                <mxCell id="58" value="-_reference: Reference()&#10;-_scripture: List&lt;Words&gt;" style="text;strokeColor=#666666;fillColor=#f5f5f5;align=left;verticalAlign=top;spacingLeft=4;spacingRight=4;overflow=hidden;rotatable=0;points=[[0,0.5],[1,0.5]];portConstraint=eastwest;fontColor=#333333;fontSize=14;" parent="57" vertex="1">
                    <mxGeometry y="26" width="180" height="50" as="geometry"/>
                </mxCell>
                <mxCell id="59" value="" style="line;strokeWidth=1;fillColor=#f5f5f5;align=left;verticalAlign=middle;spacingTop=-1;spacingLeft=3;spacingRight=3;rotatable=0;labelPosition=right;points=[];portConstraint=eastwest;strokeColor=#666666;fontColor=#333333;fontSize=14;" parent="57" vertex="1">
                    <mxGeometry y="76" width="180" height="8" as="geometry"/>
                </mxCell>
                <mxCell id="60" value="- SaveWords(): Scripture&#10;+ DisplayScripture(): string&#10;+ HideWords(): string&#10;" style="text;strokeColor=#666666;fillColor=#f5f5f5;align=left;verticalAlign=top;spacingLeft=4;spacingRight=4;overflow=hidden;rotatable=0;points=[[0,0.5],[1,0.5]];portConstraint=eastwest;fontColor=#333333;fontSize=14;" parent="57" vertex="1">
                    <mxGeometry y="84" width="180" height="62" as="geometry"/>
                </mxCell>
                <mxCell id="65" value="" style="endArrow=open;html=1;endSize=12;startArrow=diamondThin;startSize=14;startFill=1;edgeStyle=orthogonalEdgeStyle;fontSize=14;entryX=0.5;entryY=1;entryDx=0;entryDy=0;" parent="1" target="40" edge="1">
                    <mxGeometry relative="1" as="geometry">
                        <mxPoint y="405.25" as="sourcePoint"/>
                        <mxPoint y="235.25" as="targetPoint"/>
                    </mxGeometry>
                </mxCell>
                <mxCell id="66" value="1..n" style="edgeLabel;resizable=0;html=1;align=left;verticalAlign=top;fontSize=14;" parent="65" connectable="0" vertex="1">
                    <mxGeometry x="-1" relative="1" as="geometry">
                        <mxPoint x="15" y="-30" as="offset"/>
                    </mxGeometry>
                </mxCell>
                <mxCell id="67" value="1" style="edgeLabel;resizable=0;html=1;align=right;verticalAlign=top;fontSize=14;" parent="65" connectable="0" vertex="1">
                    <mxGeometry x="1" relative="1" as="geometry">
                        <mxPoint x="25" as="offset"/>
                    </mxGeometry>
                </mxCell>
                <mxCell id="69" value="Word" style="swimlane;fontStyle=1;align=center;verticalAlign=top;childLayout=stackLayout;horizontal=1;startSize=26;horizontalStack=0;resizeParent=1;resizeParentMax=0;resizeLast=0;collapsible=1;marginBottom=0;fillColor=#f5f5f5;strokeColor=#666666;fontColor=#333333;fontSize=14;" parent="1" vertex="1">
                    <mxGeometry x="-255" y="625.25" width="170" height="138" as="geometry"/>
                </mxCell>
                <mxCell id="70" value="- _word: string&#10;- _hidden: boolean" style="text;strokeColor=#666666;fillColor=#f5f5f5;align=left;verticalAlign=top;spacingLeft=4;spacingRight=4;overflow=hidden;rotatable=0;points=[[0,0.5],[1,0.5]];portConstraint=eastwest;fontColor=#333333;fontSize=14;" parent="69" vertex="1">
                    <mxGeometry y="26" width="170" height="44" as="geometry"/>
                </mxCell>
                <mxCell id="71" value="" style="line;strokeWidth=1;fillColor=#f5f5f5;align=left;verticalAlign=middle;spacingTop=-1;spacingLeft=3;spacingRight=3;rotatable=0;labelPosition=right;points=[];portConstraint=eastwest;strokeColor=#666666;fontColor=#333333;fontSize=14;" parent="69" vertex="1">
                    <mxGeometry y="70" width="170" height="8" as="geometry"/>
                </mxCell>
                <mxCell id="72" value="- Word(): void&#10;- Hide(): void&#10;- Display(): string" style="text;strokeColor=#666666;fillColor=#f5f5f5;align=left;verticalAlign=top;spacingLeft=4;spacingRight=4;overflow=hidden;rotatable=0;points=[[0,0.5],[1,0.5]];portConstraint=eastwest;fontColor=#333333;fontSize=14;" parent="69" vertex="1">
                    <mxGeometry y="78" width="170" height="60" as="geometry"/>
                </mxCell>
                <mxCell id="74" value="Reference" style="swimlane;fontStyle=1;align=center;verticalAlign=top;childLayout=stackLayout;horizontal=1;startSize=26;horizontalStack=0;resizeParent=1;resizeParentMax=0;resizeLast=0;collapsible=1;marginBottom=0;fillColor=#f5f5f5;strokeColor=#666666;fontColor=#333333;fontSize=14;" parent="1" vertex="1">
                    <mxGeometry x="85" y="625.25" width="170" height="132" as="geometry"/>
                </mxCell>
                <mxCell id="75" value="- _book: string&#10;- _chapter: int&#10;- _verse: string" style="text;strokeColor=#666666;fillColor=#f5f5f5;align=left;verticalAlign=top;spacingLeft=4;spacingRight=4;overflow=hidden;rotatable=0;points=[[0,0.5],[1,0.5]];portConstraint=eastwest;fontColor=#333333;fontSize=14;fontStyle=0" parent="74" vertex="1">
                    <mxGeometry y="26" width="170" height="66" as="geometry"/>
                </mxCell>
                <mxCell id="76" value="" style="line;strokeWidth=1;fillColor=#f5f5f5;align=left;verticalAlign=middle;spacingTop=-1;spacingLeft=3;spacingRight=3;rotatable=0;labelPosition=right;points=[];portConstraint=eastwest;strokeColor=#666666;fontColor=#333333;fontSize=14;" parent="74" vertex="1">
                    <mxGeometry y="92" width="170" height="8" as="geometry"/>
                </mxCell>
                <mxCell id="77" value="- Display(): string" style="text;strokeColor=#666666;fillColor=#f5f5f5;align=left;verticalAlign=top;spacingLeft=4;spacingRight=4;overflow=hidden;rotatable=0;points=[[0,0.5],[1,0.5]];portConstraint=eastwest;fontColor=#333333;fontSize=14;" parent="74" vertex="1">
                    <mxGeometry y="100" width="170" height="32" as="geometry"/>
                </mxCell>
                <mxCell id="80" value="The Word class will contain 2 variables, one will store the word itself, and the other will be a boolean to indicate if the word should be hidden or not. Both private.&lt;br&gt;&lt;br&gt;Finally it will contain 2 methods, one to display itself, maybe as normal or as lower dashes if _hidden = True" style="whiteSpace=wrap;html=1;fontSize=14;fillColor=#f5f5f5;strokeColor=#666666;fontColor=#333333;" parent="1" vertex="1">
                    <mxGeometry x="-395" y="805.25" width="310" height="138.25" as="geometry"/>
                </mxCell>
                <mxCell id="82" value="The Reference class will contain 3 variables to store the different parts of the reference value." style="whiteSpace=wrap;html=1;fontSize=14;fillColor=#f5f5f5;strokeColor=#666666;fontColor=#333333;" parent="1" vertex="1">
                    <mxGeometry x="85" y="805.25" width="310" height="138.25" as="geometry"/>
                </mxCell>
                <mxCell id="83" value="The Scripture class will contain 2 private variables, one to store the reference and another one to store the scripture as a List of Word classes.&lt;br&gt;&lt;br&gt;It will contain also a SaveScripture class that it will hard code the scripture word by word." style="whiteSpace=wrap;html=1;fontSize=14;fillColor=#f5f5f5;strokeColor=#666666;fontColor=#333333;" parent="1" vertex="1">
                    <mxGeometry x="225" y="385.25" width="310" height="138.25" as="geometry"/>
                </mxCell>
                <mxCell id="87" value="" style="endArrow=open;html=1;endSize=12;startArrow=diamondThin;startSize=14;startFill=1;edgeStyle=orthogonalEdgeStyle;fontSize=14;entryX=1;entryY=0.5;entryDx=0;entryDy=0;exitX=0.5;exitY=0;exitDx=0;exitDy=0;" parent="1" source="74" target="58" edge="1">
                    <mxGeometry x="-0.0385" relative="1" as="geometry">
                        <mxPoint x="215" y="655.25" as="sourcePoint"/>
                        <mxPoint x="-75" y="483.25" as="targetPoint"/>
                        <mxPoint as="offset"/>
                    </mxGeometry>
                </mxCell>
                <mxCell id="88" value="1" style="edgeLabel;resizable=0;html=1;align=left;verticalAlign=top;fontSize=14;" parent="87" connectable="0" vertex="1">
                    <mxGeometry x="-1" relative="1" as="geometry">
                        <mxPoint x="15" y="-30" as="offset"/>
                    </mxGeometry>
                </mxCell>
                <mxCell id="89" value="1" style="edgeLabel;resizable=0;html=1;align=right;verticalAlign=top;fontSize=14;" parent="87" connectable="0" vertex="1">
                    <mxGeometry x="1" relative="1" as="geometry">
                        <mxPoint x="30" y="2" as="offset"/>
                    </mxGeometry>
                </mxCell>
                <mxCell id="92" value="" style="endArrow=open;html=1;endSize=12;startArrow=diamondThin;startSize=14;startFill=1;edgeStyle=orthogonalEdgeStyle;fontSize=14;entryX=0;entryY=0.5;entryDx=0;entryDy=0;exitX=0.5;exitY=0;exitDx=0;exitDy=0;" parent="1" source="69" target="58" edge="1">
                    <mxGeometry x="-0.0385" relative="1" as="geometry">
                        <mxPoint x="-265" y="667.25" as="sourcePoint"/>
                        <mxPoint x="-150" y="475.25" as="targetPoint"/>
                        <mxPoint as="offset"/>
                    </mxGeometry>
                </mxCell>
                <mxCell id="93" value="1..n" style="edgeLabel;resizable=0;html=1;align=left;verticalAlign=top;fontSize=14;" parent="92" connectable="0" vertex="1">
                    <mxGeometry x="-1" relative="1" as="geometry">
                        <mxPoint x="15" y="-30" as="offset"/>
                    </mxGeometry>
                </mxCell>
                <mxCell id="94" value="1" style="edgeLabel;resizable=0;html=1;align=right;verticalAlign=top;fontSize=14;" parent="92" connectable="0" vertex="1">
                    <mxGeometry x="1" relative="1" as="geometry">
                        <mxPoint x="-30" y="2" as="offset"/>
                    </mxGeometry>
                </mxCell>
                <mxCell id="95" value="The program will create a Scripture Object.&lt;br&gt;&lt;br&gt;Then it will display the scripture and every time the user hits &lt;b&gt;Enter &lt;/b&gt;the program will call the HideWords() method on the scripture1 object." style="whiteSpace=wrap;html=1;fontSize=14;fillColor=#f5f5f5;strokeColor=#666666;fontColor=#333333;" parent="1" vertex="1">
                    <mxGeometry x="-455" y="171.13" width="310" height="138.25" as="geometry"/>
                </mxCell>
            </root>
        </mxGraphModel>
    </diagram>
</mxfile>